<!-- Generator: Adobe Illustrator 24.3.0, SVG Export Plug-In . SVG Version: 6.00 Build 0)  -->
<svg version="1.1" id="Capa_1" xmlns="http://www.w3.org/2000/svg" xmlns:xlink="http://www.w3.org/1999/xlink" x="0px" y="0px"
	 viewBox="0 0 49 56.7" style="enable-background:new 0 0 49 56.7;" xml:space="preserve">
<style type="text/css">
	.st0{fill-rule:evenodd;clip-rule:evenodd;fill:#FFFFFF;}
	.st1{filter:url(#Adobe_OpacityMaskFilter);}
	.st2{mask:url(#mask-3_1_);fill-rule:evenodd;clip-rule:evenodd;fill:#FFFFFF;}
</style>
<g id="Page-1">
	<g id="PachaNightclub_Home_Desktop" transform="translate(-129.000000, -20.000000)">
		<g id="Group-26" transform="translate(0.097561, 0.000000)">
			<g transform="translate(129.000000, 20.800000)">
				<path id="Fill-1" class="st0" d="M42.8,4.4c-2.1-3.1-5.5-5.2-9.4-5.2c-2.7,0-5.2,1-7.2,2.7c-0.3,0.3-0.6,0.6-0.9,0.9V0.2
					c0-0.5-0.4-0.8-0.8-0.8s-0.8,0.4-0.8,0.8v2.6c-0.3-0.3-0.6-0.6-0.9-0.9c-2-1.7-4.5-2.7-7.2-2.7c-3.9,0-7.3,2-9.4,5.2
					c-0.2,0.4-0.2,0.8,0,1.2C6.7,6.4,7.3,7.1,8,7.8c1.9,1.8,4.4,2.9,7.2,2.9c0.1,0,0.2,0,0.3,0h0c0.1,0,0.2,0,0.3,0
					c0.1,0,0.2,0,0.3,0c0.8,0,1.6-0.2,2.4-0.4c-1.7,2.4-3.1,5.2-3.8,8c-0.1,0.4,0.1,0.8,0.5,0.9c0.1,0,0.1,0,0.2,0
					c0.3,0,0.6-0.2,0.7-0.6c1.2-5,4.9-10,8.5-12c3.6,2,7.3,7,8.5,12c0.1,0.3,0.4,0.6,0.7,0.6c0.1,0,0.1,0,0.2,0
					c0.4-0.1,0.6-0.5,0.5-0.9c-0.7-2.8-2.1-5.6-3.8-8c0.8,0.2,1.6,0.3,2.4,0.4c0.1,0,0.2,0,0.3,0c0.1,0,0.2,0,0.3,0h0
					c0.1,0,0.2,0,0.3,0c2.7-0.1,5.2-1.2,7.2-2.9c0.7-0.7,1.4-1.4,1.9-2.2C43,5.2,43,4.7,42.8,4.4"/>
				<path id="Combined-Shape" class="st0" d="M37.6,19.9c4.3,0,5.5,4.7,5.5,8.1c0,3.7-2.5,10.6-9.5,10.6l0,0l-0.3,0
					c-4.4-0.1-7.9-3.3-8.9-7.9c-1.1,4.7-4.6,7.9-9.2,7.9l0,0c-7,0-9.5-6.9-9.5-10.6c0-3.3,1.2-8.1,5.5-8.1c1.9,0,2.3,1.2,4,1.2
					c1.7,0,2.1-1.2,4-1.2c2.7,0,4.5,2.7,5.2,5.5c0.7-2.8,2.5-5.5,5.2-5.5c1.9,0,2.3,1.2,4,1.2C35.4,21.2,35.8,19.9,37.6,19.9z
					 M20.6,22.1c-0.8-0.4-1.6-0.5-2.2,0.2c-0.5,0.7-0.4,1.6,0.2,2.3c0.5,0.6,1,1.6,1,2.5c0,0.9,0.6,1.7,1.4,1.7c0,0,0.1,0,0.1,0
					c0.8,0,1.5-0.6,1.6-1.5C22.8,25.4,21.7,22.7,20.6,22.1z M39.2,22.1c-0.8-0.4-1.6-0.5-2.2,0.2c-0.5,0.7-0.4,1.6,0.2,2.3
					c0.5,0.6,1,1.6,1,2.5c0,0.9,0.6,1.7,1.4,1.7c0,0,0.1,0,0.1,0c0.8,0,1.5-0.6,1.6-1.5C41.5,25.4,40.3,22.7,39.2,22.1z"/>
				<g id="Group-11" transform="translate(0.000000, 55.734013)">
					<g id="Clip-10">
					</g>
					<defs>
						<filter id="Adobe_OpacityMaskFilter" filterUnits="userSpaceOnUse" x="-0.1" y="-11.2" width="8.8" height="11.4">
							<feColorMatrix  type="matrix" values="1 0 0 0 0  0 1 0 0 0  0 0 1 0 0  0 0 0 1 0"/>
						</filter>
					</defs>
					<mask maskUnits="userSpaceOnUse" x="-0.1" y="-11.2" width="8.8" height="11.4" id="mask-3_1_">
						<g class="st1">
							<polygon id="path-2_1_" class="st0" points="-0.1,-11.2 8.7,-11.2 8.7,0.2 -0.1,0.2 							"/>
						</g>
					</mask>
					<path id="Fill-9" class="st2" d="M4.3-6.4C3.6-6.4,3-7,3-7.8c0-0.7,0.6-1.3,1.3-1.3c0.7,0,1.3,0.6,1.3,1.3C5.6-7,5-6.4,4.3-6.4
						 M7.2-11.2c-0.3,0-4.9,0-5.7,0c-0.8,0-1.5,0.7-1.5,1.5c0,1.7,0,8.2,0,8.3c0,0.9,0.8,1.6,1.5,1.6h1.3c0.5,0,1.1-0.4,1.1-1.2
						C3.8-1.8,3-2.5,3-3.2C3-4,3.6-4.6,4.3-4.6h2.8c0.8,0,1.6-0.5,1.6-1.6c0-0.4,0-2.6,0-3.4C8.7-10.3,8.2-11.2,7.2-11.2"/>
				</g>
				<path id="Fill-12" class="st0" d="M37,44.5h-1c-0.5,0-1.1,0.4-1.1,1.2c0,0.8,0.8,1.4,0.8,2.2c0,0.7-0.6,1.3-1.3,1.3h0
					c-0.7,0-1.3-0.6-1.3-1.3c0-0.8,0.8-1.4,0.8-2.2c0-0.8-0.5-1.2-1.1-1.2h-1c-1.2,0-1.8,0.7-1.8,1.8v7.8c0,1,0.5,1.8,1.8,1.8h1
					c0.5,0,1.1-0.4,1.1-1.2c0-0.8-0.8-1.4-0.8-2.2c0-0.7,0.6-1.3,1.3-1.3h0c0.7,0,1.3,0.6,1.3,1.3c0,0.8-0.8,1.4-0.8,2.2
					c0,0.8,0.5,1.2,1.1,1.2h1c1.2,0,1.8-0.7,1.8-1.8v-7.8C38.8,45.3,38.2,44.5,37,44.5"/>
				<path id="Fill-14" class="st0" d="M44.5,49.3c-0.7,0-1.3-0.6-1.3-1.3c0-0.7,0.6-1.3,1.3-1.3c0.7,0,1.3,0.6,1.3,1.3
					C45.8,48.7,45.2,49.3,44.5,49.3 M47.3,44.5h-5.7c-0.8,0-1.6,0.7-1.6,1.5l0,8c0,1,0.5,1.8,1.8,1.8h1c0.5,0,1.1-0.4,1.1-1.2
					c0-0.8-0.8-1.4-0.8-2.2c0-0.7,0.6-1.3,1.3-1.3c0,0,0,0,0,0l0,0c0,0,0,0,0,0c0.7,0,1.3,0.6,1.3,1.3c0,0.8-0.8,1.4-0.8,2.2
					c0,0.8,0.5,1.2,1.1,1.2h1c1.2,0,1.8-0.7,1.8-1.8c0,0,0-7.9,0-8C48.9,45.2,48.2,44.5,47.3,44.5"/>
				<path id="Fill-16" class="st0" d="M14.3,49.3c-0.7,0-1.3-0.6-1.3-1.3c0-0.7,0.6-1.3,1.3-1.3c0.7,0,1.3,0.6,1.3,1.3
					C15.6,48.7,15,49.3,14.3,49.3 M17.2,44.5h-5.7c-0.8,0-1.6,0.7-1.6,1.5l0,8c0,1,0.5,1.8,1.8,1.8h1c0.5,0,1.1-0.4,1.1-1.2
					c0-0.8-0.8-1.4-0.8-2.2c0-0.7,0.6-1.3,1.3-1.3v0l0,0c0,0,0,0,0,0c0.7,0,1.3,0.6,1.3,1.3c0,0.8-0.8,1.4-0.8,2.2
					c0,0.8,0.5,1.2,1.1,1.2h1c1.2,0,1.8-0.7,1.8-1.8c0,0,0-7.9,0-8C18.7,45.2,18,44.5,17.2,44.5"/>
				<path id="Fill-18" class="st0" d="M28.8,48c0-0.4,0-1.3,0-1.6c0-2-1.5-1.9-2-1.9h-5.2c-0.9,0-1.7,0.6-1.7,1.6v8.1
					c0,1.1,0.8,1.6,1.7,1.6h5.2c0.5,0,2,0.1,2-1.9c0-0.4,0-1.3,0-1.6c0-0.9-0.7-1.6-1.6-1.6s-1.6,0.7-1.6,1.6v0.1
					c0,0.7-0.6,1.3-1.2,1.3c-0.7,0-1.2-0.6-1.2-1.3V48c0-0.7,0.6-1.3,1.2-1.3c0.7,0,1.2,0.6,1.2,1.3V48c0,0.9,0.7,1.6,1.6,1.6
					S28.8,48.9,28.8,48z"/>
				<g id="Clip-21">
				</g>
			</g>
		</g>
	</g>
</g>
</svg>
